<?xml version="1.0" encoding="UTF-8" standalone="no"?>
<svg
   xmlns:dc="http://purl.org/dc/elements/1.1/"
   xmlns:cc="http://creativecommons.org/ns#"
   xmlns:rdf="http://www.w3.org/1999/02/22-rdf-syntax-ns#"
   xmlns:svg="http://www.w3.org/2000/svg"
   xmlns="http://www.w3.org/2000/svg"
   viewBox="0 0 755.90533 755.90533"
   height="755.90533"
   width="755.90533"
   xml:space="preserve"
   id="svg2"
   version="1.1"><metadata
     id="metadata8"><rdf:RDF><cc:Work
         rdf:about=""><dc:format>image/svg+xml</dc:format><dc:type
           rdf:resource="http://purl.org/dc/dcmitype/StillImage" /></cc:Work></rdf:RDF></metadata><defs
     id="defs6"><clipPath
       id="clipPath18"
       clipPathUnits="userSpaceOnUse"><path
         id="path16"
         d="M 0,566.929 H 566.929 V 0 H 0 Z" /></clipPath></defs><g
     transform="matrix(1.3333333,0,0,-1.3333333,0,755.90533)"
     id="g10"><g
       id="g12"><g
         clip-path="url(#clipPath18)"
         id="g14"><g
           transform="translate(390.876,147.9799)"
           id="g20"><path
             id="path22"
             style="fill:#9d145e;fill-opacity:1;fill-rule:nonzero;stroke:none"
             d="m 0,0 c -8.613,0 -16.803,1.593 -24.57,4.773 -4.213,1.686 -7.817,3.605 -10.812,5.757 -2.341,1.78 -4.868,4.191 -7.582,7.232 -2.716,3.042 -4.868,5.826 -6.458,8.353 -5.991,9.267 -8.986,25.742 -8.986,49.422 0,27.893 4.634,69.873 13.9,125.942 3.089,18.252 5.006,33.181 5.757,44.789 0.28,5.427 0.421,10.903 0.421,16.427 0,4.96 -0.235,9.874 -0.702,14.742 -6.273,-8.051 -11.14,-15.585 -14.602,-22.605 -11.607,-23.215 -23.307,-63.135 -35.101,-119.764 -2.435,-13.386 -4.447,-23.588 -6.037,-30.608 -1.032,-3.931 -2.576,-8.472 -4.633,-13.619 -2.061,-5.15 -3.791,-8.753 -5.196,-10.812 -2.807,-3.557 -7.535,-5.334 -14.18,-5.334 -14.135,0 -25.648,4.493 -34.539,13.479 -2.716,2.619 -4.774,5.194 -6.178,7.722 -4.307,7.487 -6.459,20.264 -6.459,38.33 l 0.421,25.272 c -2.154,-8.143 -4.071,-16.1 -5.756,-23.868 -2.435,-11.046 -3.839,-17.691 -4.212,-19.938 -4.587,-22.745 -7.77,-36.459 -9.548,-41.137 -1.684,-4.213 -3.51,-8.004 -5.475,-11.373 -2.341,-5.055 -8.473,-7.723 -18.393,-8.003 l -4.774,-0.141 c -1.966,0 -4.493,0.421 -7.581,1.264 -11.421,2.807 -18.723,8.425 -21.904,16.848 -1.498,3.743 -2.761,9.313 -3.79,16.707 -2.341,14.603 -3.51,33.229 -3.51,55.882 0,22.745 1.169,49.468 3.51,80.17 1.215,16.848 2.246,26.863 3.089,30.047 1.403,5.146 5.897,7.722 13.478,7.722 4.304,0 9.407,-0.891 15.304,-2.668 9.64,-3.183 16.614,-7.676 20.92,-13.479 0.843,-1.031 1.496,-2.06 1.966,-3.089 0.654,-1.779 0.983,-4.962 0.983,-9.547 l -0.141,-10.952 c -0.75,-26.865 -1.263,-62.012 -1.544,-105.443 11.605,53.727 20.264,85.739 25.975,96.036 2.527,4.68 6.971,7.021 13.338,7.021 7.487,0 14.226,-1.453 20.218,-4.353 12.542,-6.272 19.983,-15.538 22.324,-27.8 1.123,-6.177 1.871,-14.18 2.246,-24.009 l 1.264,-38.611 c 4.212,19.843 9.407,42.262 15.585,67.254 6.831,27.61 12.356,47.596 16.568,59.952 12.728,37.814 26.301,56.723 40.716,56.723 l 8.705,-0.141 c 1.778,-0.094 4.258,-0.702 7.442,-1.825 19.748,-7.115 30.934,-23.636 33.556,-49.562 0.373,-4.307 0.562,-10.625 0.562,-18.955 0,-8.424 -0.189,-15.164 -0.562,-20.218 C 13.899,208.499 11.513,190.433 7.862,165.816 1.685,125.191 -1.404,93.088 -1.404,69.5 c 0,-14.227 1.123,-24.992 3.37,-32.293 1.403,-4.213 2.807,-7.533 4.212,-9.969 2.057,-2.339 3.931,-3.509 5.616,-3.509 8.235,0 17.315,31.825 27.238,95.474 0.748,6.363 1.31,10.201 1.685,11.512 0.468,1.967 1.193,3.275 2.177,3.931 0.982,0.655 2.502,0.984 4.562,0.984 1.496,-0.189 3.135,-1.359 4.914,-3.511 0.187,-0.75 0.281,-1.592 0.281,-2.527 0,-1.498 -0.188,-3.229 -0.561,-5.195 C 42.542,51.388 30.278,11 15.304,3.229 11.278,1.077 6.178,0 0,0" /></g><g
           transform="translate(163.5942,180.4975)"
           id="g24"><path
             id="path26"
             style="fill:#171717;fill-opacity:1;fill-rule:nonzero;stroke:none"
             d="M 0,0 C 0.639,1.598 0.719,2.441 0.24,2.533 -0.24,2.625 -1.005,2.123 -2.055,1.027 -3.014,0.021 -3.916,-1.006 -4.76,-2.055 c -0.845,-1.05 -1.724,-2.101 -2.636,-3.15 -0.823,-1.096 -1.61,-2.191 -2.364,-3.288 -0.753,-1.096 -1.517,-2.192 -2.294,-3.287 -0.137,-0.183 -0.308,-0.286 -0.513,-0.308 -0.206,-0.024 -0.4,0.01 -0.583,0.102 -0.182,0.091 -0.308,0.228 -0.376,0.412 -0.069,0.181 -0.057,0.386 0.034,0.615 1.188,2.329 2.466,4.703 3.835,7.123 1.37,2.42 2.808,4.68 4.315,6.781 0.274,0.365 0.651,0.445 1.13,0.24 0.48,-0.206 0.605,-0.56 0.377,-1.062 C -3.972,1.939 -4.189,1.619 -4.486,1.164 -4.783,0.707 -5.114,0.216 -5.479,-0.309 c -0.366,-0.525 -0.708,-1.004 -1.027,-1.437 -0.32,-0.436 -0.548,-0.743 -0.685,-0.926 0.318,0.457 0.764,1.016 1.336,1.678 0.57,0.662 1.174,1.324 1.814,1.986 0.639,0.662 1.267,1.29 1.884,1.884 0.616,0.593 1.175,1.05 1.678,1.37 0.318,0.182 0.627,0.318 0.924,0.41 C 0.742,4.748 1.072,4.68 1.438,4.451 1.894,4.223 2.157,3.801 2.226,3.185 2.294,2.568 2.26,1.906 2.123,1.198 1.986,0.49 1.803,-0.205 1.575,-0.891 1.346,-1.576 1.165,-2.078 1.027,-2.397 0.981,-2.489 0.891,-2.672 0.753,-2.945 0.617,-3.219 0.49,-3.517 0.377,-3.836 0.262,-4.156 0.16,-4.441 0.068,-4.691 c -0.091,-0.252 -0.136,-0.424 -0.136,-0.514 0.228,0.182 0.672,0.547 1.335,1.096 0.661,0.547 1.439,1.174 2.329,1.882 0.89,0.707 1.825,1.439 2.808,2.192 0.981,0.754 1.917,1.449 2.808,2.09 0.89,0.638 1.654,1.186 2.294,1.643 0.639,0.456 1.073,0.707 1.302,0.753 0.547,0.229 1.13,0.25 1.746,0.069 0.616,-0.183 0.947,-0.64 0.993,-1.37 0,-0.183 -0.08,-0.513 -0.24,-0.993 C 15.146,1.678 14.931,1.096 14.657,0.41 14.383,-0.274 14.074,-1.006 13.732,-1.781 13.39,-2.559 13.058,-3.312 12.739,-4.041 12.51,-4.589 12.27,-5.172 12.02,-5.787 11.769,-6.404 11.643,-6.93 11.643,-7.363 c 0,-0.434 0.206,-0.742 0.616,-0.924 0.411,-0.184 1.187,-0.115 2.329,0.205 0.959,0.273 2.043,0.662 3.253,1.164 1.21,0.502 2.363,1.016 3.459,1.541 1.096,0.524 2.077,1.016 2.945,1.473 0.867,0.456 1.438,0.799 1.712,1.027 0.182,0.182 0.365,0.25 0.548,0.205 0.182,-0.045 0.331,-0.148 0.445,-0.307 0.114,-0.162 0.172,-0.355 0.172,-0.583 0,-0.229 -0.069,-0.434 -0.206,-0.616 -0.32,-0.32 -0.902,-0.709 -1.747,-1.164 -0.845,-0.457 -1.815,-0.926 -2.91,-1.404 -1.096,-0.481 -2.238,-0.959 -3.425,-1.439 -1.188,-0.479 -2.26,-0.879 -3.219,-1.198 -0.684,-0.229 -1.449,-0.457 -2.294,-0.685 -0.845,-0.229 -1.575,-0.252 -2.192,-0.069 -0.616,0.182 -1.016,0.639 -1.198,1.369 -0.183,0.731 0.045,1.918 0.685,3.563 0.319,0.775 0.639,1.586 0.959,2.432 0.319,0.843 0.661,1.654 1.027,2.43 0.365,0.913 0.661,1.644 0.89,2.192 C 13.72,2.396 13.789,2.75 13.698,2.91 13.606,3.07 13.332,3.023 12.876,2.773 12.419,2.521 11.711,2.031 10.753,1.301 9.839,0.616 8.857,-0.172 7.808,-1.062 6.757,-1.952 5.741,-2.798 4.76,-3.596 3.778,-4.396 2.887,-5.092 2.089,-5.686 1.29,-6.279 0.73,-6.644 0.411,-6.781 0.137,-6.873 -0.195,-6.883 -0.582,-6.814 c -0.389,0.068 -0.628,0.261 -0.719,0.582 -0.229,0.273 -0.332,0.638 -0.308,1.095 0.022,0.455 0.113,0.969 0.274,1.541 0.159,0.571 0.364,1.164 0.616,1.781 0.25,0.616 0.49,1.221 0.719,1.815" /></g><g
           transform="translate(201.6055,175.7026)"
           id="g28"><path
             id="path30"
             style="fill:#171717;fill-opacity:1;fill-rule:nonzero;stroke:none"
             d="m 0,0 c -0.411,-1.187 -0.582,-2.112 -0.514,-2.773 0.069,-0.663 0.319,-1.108 0.754,-1.336 0.433,-0.229 1.015,-0.297 1.746,-0.205 0.73,0.09 1.552,0.296 2.466,0.616 1.004,0.319 2.077,0.741 3.219,1.266 1.141,0.526 2.214,1.051 3.219,1.577 1.004,0.523 1.871,1.037 2.602,1.541 0.73,0.501 1.21,0.89 1.439,1.164 0.181,0.228 0.376,0.33 0.582,0.308 C 15.718,2.135 15.9,2.055 16.061,1.918 16.22,1.781 16.311,1.598 16.334,1.37 16.357,1.141 16.277,0.913 16.095,0.686 15.775,0.319 15.239,-0.126 14.485,-0.65 13.732,-1.176 12.853,-1.701 11.849,-2.226 10.844,-2.751 9.76,-3.265 8.595,-3.767 7.431,-4.27 6.301,-4.703 5.205,-5.068 4.109,-5.434 3.082,-5.707 2.123,-5.89 1.165,-6.072 0.388,-6.096 -0.206,-5.958 c -0.776,0.137 -1.29,0.559 -1.541,1.267 -0.251,0.707 -0.342,1.495 -0.274,2.363 0.069,0.867 0.229,1.723 0.48,2.568 0.25,0.844 0.49,1.518 0.719,2.021 l -5.616,-4.863 c -2.465,-2.147 -4.349,-3.449 -5.65,-3.904 -1.301,-0.457 -2.112,-0.354 -2.432,0.309 -0.318,0.66 -0.262,1.699 0.172,3.115 0.434,1.415 1.153,2.934 2.157,4.555 1.004,1.621 2.18,3.173 3.527,4.657 1.347,1.483 2.774,2.591 4.281,3.321 0.592,0.275 1.278,0.514 2.054,0.72 0.776,0.206 1.576,0.308 2.397,0.308 0.823,0 1.599,-0.114 2.329,-0.342 C 3.127,9.908 3.721,9.496 4.178,8.904 4.497,8.493 4.474,8.093 4.109,7.705 3.744,7.316 3.333,7.283 2.876,7.603 1.552,8.516 0.262,8.926 -0.993,8.836 -2.25,8.743 -3.539,8.242 -4.863,7.328 -6.004,6.507 -6.998,5.604 -7.842,4.623 -8.687,3.641 -9.451,2.604 -10.136,1.508 c -0.64,-1.006 -1.245,-2.022 -1.815,-3.049 -0.57,-1.027 -0.879,-1.814 -0.924,-2.362 -0.046,-0.548 0.285,-0.732 0.992,-0.548 0.708,0.181 1.997,1.027 3.87,2.533 0.959,0.776 1.94,1.598 2.945,2.467 1.004,0.866 1.928,1.712 2.774,2.533 0.844,0.822 1.575,1.564 2.191,2.227 C 0.514,5.97 0.936,6.461 1.165,6.781 1.301,7.009 1.483,7.146 1.712,7.191 1.94,7.236 2.146,7.215 2.329,7.123 2.511,7.031 2.647,6.883 2.74,6.678 2.831,6.473 2.831,6.256 2.74,6.027 2.374,5.113 1.918,4.145 1.37,3.117 0.822,2.09 0.365,1.051 0,0" /></g><g
           transform="translate(213.5225,159.8139)"
           id="g32"><path
             id="path34"
             style="fill:#171717;fill-opacity:1;fill-rule:nonzero;stroke:none"
             d="m 0,0 c 0.411,0.092 1.096,0.354 2.055,0.787 0.959,0.434 2.008,0.97 3.15,1.609 1.141,0.639 2.295,1.336 3.459,2.09 1.164,0.753 2.168,1.506 3.013,2.26 0.844,0.753 1.461,1.473 1.849,2.157 0.388,0.685 0.377,1.279 -0.034,1.781 L 13.355,10.615 C 12.259,9.793 11.118,8.972 9.931,8.15 8.743,7.328 7.556,6.494 6.37,5.65 5.182,4.805 4.041,3.914 2.945,2.979 1.849,2.043 0.868,1.049 0,0 m 14.177,12.738 c 0.867,0.456 1.963,0.982 3.287,1.576 1.325,0.592 2.706,1.165 4.144,1.711 1.438,0.549 2.819,1.028 4.143,1.44 1.325,0.41 2.398,0.639 3.22,0.684 0.411,0 0.638,-0.217 0.685,-0.651 0.045,-0.434 -0.206,-0.696 -0.754,-0.787 -1.188,-0.229 -3.048,-0.777 -5.582,-1.644 -2.534,-0.868 -5.285,-2.054 -8.253,-3.561 0.64,-0.641 0.765,-1.416 0.377,-2.328 C 15.056,8.264 14.371,7.316 13.39,6.335 12.407,5.353 11.22,4.383 9.828,3.424 8.435,2.465 7.054,1.586 5.685,0.787 4.315,-0.012 3.048,-0.662 1.883,-1.164 0.719,-1.666 -0.137,-1.94 -0.685,-1.986 c -0.411,-0.045 -0.798,0.068 -1.164,0.341 -0.365,0.275 -0.502,0.641 -0.411,1.096 0.092,0.412 0.274,0.766 0.548,1.063 0.274,0.296 0.525,0.627 0.753,0.992 2.101,1.918 4.258,3.733 6.472,5.445 2.215,1.713 4.487,3.367 6.815,4.965 -0.822,0.365 -1.781,0.708 -2.876,1.027 -1.097,0.321 -2.136,0.708 -3.117,1.165 -0.982,0.456 -1.827,1.05 -2.534,1.781 -0.707,0.73 -1.061,1.689 -1.061,2.877 0,1.095 0.388,2.031 1.164,2.808 0.319,0.364 0.856,0.822 1.609,1.369 0.754,0.548 1.586,1.096 2.5,1.644 0.913,0.548 1.86,1.05 2.842,1.507 0.982,0.456 1.895,0.754 2.74,0.89 0.844,0.137 1.551,0.057 2.123,-0.24 0.571,-0.297 0.901,-0.902 0.993,-1.814 0.045,-0.548 -0.137,-1.2 -0.548,-1.952 -0.411,-0.753 -0.913,-1.507 -1.506,-2.261 -0.594,-0.752 -1.233,-1.427 -1.918,-2.02 -0.685,-0.593 -1.279,-0.982 -1.781,-1.164 -0.229,-0.092 -0.445,-0.092 -0.65,0 -0.206,0.09 -0.367,0.216 -0.48,0.377 -0.115,0.158 -0.149,0.353 -0.102,0.582 0.045,0.228 0.181,0.41 0.41,0.547 0.685,0.457 1.324,0.913 1.918,1.37 0.593,0.456 1.141,1.004 1.644,1.644 0.274,0.411 0.524,0.833 0.753,1.267 0.228,0.434 0.342,0.823 0.342,1.164 0,0.342 -0.16,0.593 -0.479,0.754 -0.32,0.158 -0.868,0.125 -1.644,-0.103 C 11.894,24.906 11.038,24.541 10.102,24.039 9.166,23.536 8.287,22.988 7.465,22.396 6.644,21.802 5.935,21.219 5.342,20.648 4.748,20.078 4.406,19.588 4.315,19.176 4.086,18.309 4.315,17.543 5,16.883 5.685,16.22 6.575,15.638 7.671,15.136 c 1.096,-0.503 2.248,-0.948 3.458,-1.335 1.21,-0.389 2.226,-0.743 3.048,-1.063" /></g><g
           transform="translate(257.1494,179.9487)"
           id="g36"><path
             id="path38"
             style="fill:#171717;fill-opacity:1;fill-rule:nonzero;stroke:none"
             d="m 0,0 c -0.548,-0.547 -1.404,-1.415 -2.568,-2.602 -1.164,-1.188 -2.615,-2.558 -4.349,-4.109 -2.101,-1.873 -3.904,-3.094 -5.411,-3.664 -1.506,-0.572 -2.613,-0.617 -3.321,-0.137 -0.708,0.479 -1.004,1.46 -0.891,2.945 0.115,1.483 0.743,3.366 1.884,5.65 0.912,1.872 1.791,3.39 2.636,4.554 0.845,1.165 1.541,2.043 2.089,2.637 0.411,0.412 0.822,0.412 1.233,0 C -8.516,5.092 -8.447,4.908 -8.492,4.727 -8.539,4.543 -8.607,4.36 -8.698,4.178 -9.657,2.854 -10.444,1.735 -11.061,0.822 c -0.616,-0.914 -1.267,-2.032 -1.952,-3.355 -0.914,-1.737 -1.472,-3.141 -1.677,-4.213 -0.206,-1.072 -0.103,-1.77 0.308,-2.088 0.41,-0.32 1.152,-0.206 2.225,0.342 1.073,0.548 2.477,1.597 4.213,3.15 1.14,1.004 2.225,2.009 3.253,3.014 1.027,1.004 1.962,1.952 2.808,2.842 0.844,0.89 1.597,1.678 2.26,2.363 C 1.038,3.563 1.552,4.109 1.918,4.521 2.192,4.795 2.522,4.84 2.911,4.658 3.298,4.475 3.447,4.178 3.356,3.768 3.31,3.539 3.185,3.195 2.979,2.74 2.774,2.283 2.522,1.747 2.226,1.131 1.929,0.514 1.62,-0.17 1.301,-0.924 0.981,-1.678 0.662,-2.42 0.343,-3.15 c -0.685,-1.69 -1.108,-3.026 -1.267,-4.006 -0.161,-0.983 -0.046,-1.678 0.342,-2.09 0.387,-0.41 1.084,-0.525 2.089,-0.342 1.004,0.182 2.328,0.593 3.972,1.233 1.781,0.73 3.584,1.621 5.411,2.671 1.825,1.049 3.264,2.077 4.315,3.082 0.411,0.411 0.753,0.422 1.027,0.034 0.274,-0.388 0.228,-0.787 -0.137,-1.198 -0.183,-0.229 -0.594,-0.56 -1.233,-0.994 -0.64,-0.433 -1.416,-0.935 -2.328,-1.506 C 11.62,-6.838 10.592,-7.42 9.452,-8.013 8.31,-8.606 7.168,-9.154 6.027,-9.656 c -3.927,-1.737 -6.506,-2.147 -7.739,-1.233 -1.233,0.912 -1.301,3.059 -0.205,6.438 0.273,0.867 0.604,1.688 0.993,2.466 C -0.537,-1.21 -0.229,-0.547 0,0" /></g><g
           transform="translate(272.9702,175.2241)"
           id="g40"><path
             id="path42"
             style="fill:#171717;fill-opacity:1;fill-rule:nonzero;stroke:none"
             d="M 0,0 C 0.456,0.547 1.13,1.369 2.021,2.465 2.911,3.561 3.904,4.6 5,5.581 c 1.096,0.981 2.191,1.747 3.287,2.294 1.096,0.549 2.077,0.549 2.945,0 0.548,-0.365 0.925,-0.765 1.13,-1.197 0.206,-0.436 0.343,-0.869 0.411,-1.302 0.068,-0.435 0.137,-0.88 0.205,-1.335 0.068,-0.457 0.263,-0.846 0.582,-1.165 0.365,-0.411 0.936,-0.663 1.713,-0.753 0.775,-0.092 1.586,-0.103 2.431,-0.035 0.844,0.068 1.632,0.172 2.363,0.308 0.729,0.137 1.277,0.229 1.643,0.274 0.502,0.045 0.777,-0.137 0.823,-0.547 0,-0.366 -0.23,-0.662 -0.686,-0.891 C 21.619,1.096 21.276,0.98 20.82,0.89 20.364,0.798 19.838,0.719 19.245,0.65 18.651,0.582 18.035,0.547 17.396,0.547 c -0.64,0 -1.257,0.045 -1.85,0.138 -0.547,0.09 -1.061,0.193 -1.541,0.307 C 13.526,1.105 13.126,1.277 12.807,1.506 12.259,1.917 11.893,2.5 11.711,3.252 11.529,4.006 11.345,4.701 11.164,5.342 10.98,5.98 10.695,6.437 10.308,6.711 9.919,6.985 9.246,6.824 8.287,6.232 6.825,5.273 5.501,4.109 4.315,2.739 3.127,1.369 1.94,0.068 0.753,-1.165 c -0.776,-0.913 -1.575,-1.839 -2.397,-2.773 -0.821,-0.937 -1.644,-1.839 -2.465,-2.707 -0.319,-0.319 -0.662,-0.376 -1.028,-0.169 -0.364,0.205 -0.455,0.489 -0.274,0.855 0.503,1.05 1.085,2.065 1.747,3.048 0.663,0.981 1.267,1.974 1.815,2.979 0.914,1.598 1.815,3.23 2.705,4.897 0.891,1.666 1.86,3.275 2.911,4.828 0.319,0.411 0.695,0.537 1.13,0.377 C 5.331,10.01 5.433,9.679 5.205,9.177 4.521,7.578 3.687,6.026 2.706,4.52 1.723,3.014 0.822,1.506 0,0" /></g><g
           transform="translate(305.8447,176.936)"
           id="g44"><path
             id="path46"
             style="fill:#171717;fill-opacity:1;fill-rule:nonzero;stroke:none"
             d="M 0,0 C 0.318,0.411 0.616,0.913 0.89,1.507 1.164,2.1 1.369,2.728 1.507,3.39 1.644,4.052 1.654,4.691 1.541,5.308 1.427,5.924 1.141,6.437 0.685,6.849 0,7.396 -0.891,7.636 -1.986,7.567 -3.082,7.499 -4.155,7.214 -5.205,6.712 -6.256,6.208 -7.181,5.581 -7.979,4.828 -8.778,4.075 -9.224,3.287 -9.314,2.466 c 0.456,0.273 0.763,0.216 0.924,-0.172 0.16,-0.389 0.011,-0.811 -0.445,-1.267 0.502,-0.411 1.13,-0.708 1.883,-0.89 0.754,-0.183 1.541,-0.298 2.363,-0.343 0.822,-0.045 1.632,-0.045 2.432,0 C -1.359,-0.161 -0.641,-0.093 0,0 m -9.726,-0.411 c -0.182,-0.229 -0.457,-0.651 -0.822,-1.268 -0.364,-0.615 -0.661,-1.266 -0.89,-1.951 -0.228,-0.685 -0.319,-1.336 -0.274,-1.952 0.046,-0.616 0.389,-1.017 1.027,-1.198 0.593,-0.23 1.371,-0.137 2.33,0.273 0.958,0.411 1.917,0.925 2.876,1.541 0.958,0.617 1.826,1.244 2.602,1.884 0.776,0.639 1.278,1.096 1.507,1.37 -1.005,-0.093 -1.838,-0.127 -2.5,-0.103 -0.662,0.023 -1.278,0.091 -1.849,0.205 -0.571,0.114 -1.165,0.274 -1.781,0.48 -0.616,0.205 -1.358,0.445 -2.226,0.719 m 21.437,0.342 C 11.756,-0.343 11.335,-0.583 10.444,-0.788 9.554,-0.993 8.492,-1.153 7.26,-1.267 6.026,-1.382 4.782,-1.473 3.527,-1.541 2.271,-1.61 1.301,-1.667 0.616,-1.712 c -1.827,-2.467 -3.801,-4.27 -5.924,-5.411 -2.124,-1.142 -3.916,-1.599 -5.377,-1.37 -1.461,0.228 -2.328,1.131 -2.602,2.705 -0.274,1.576 0.525,3.847 2.397,6.815 v 0.548 c -0.09,1.551 0.33,2.877 1.267,3.973 0.935,1.096 2.077,1.917 3.425,2.465 1.345,0.549 2.761,0.81 4.246,0.788 C -0.469,8.776 0.764,8.446 1.746,7.808 2.728,7.167 3.31,6.187 3.493,4.862 3.675,3.538 3.15,1.872 1.917,-0.138 2.466,-0.093 3.161,-0.046 4.007,0 c 0.844,0.045 1.722,0.113 2.637,0.205 0.912,0.091 1.78,0.183 2.602,0.274 0.821,0.091 1.507,0.182 2.055,0.274 0.227,0.045 0.342,-0.024 0.342,-0.205 0,-0.184 0.022,-0.389 0.068,-0.617" /></g></g></g></g></svg>