<?xml version="1.0" encoding="UTF-8"?>
<svg id="_Слой_1" data-name="Слой 1" xmlns="http://www.w3.org/2000/svg" viewBox="0 0 85.04 85.04">
  <defs>
    <style>
      .cls-1 {
        fill: #310c1e;
      }
    </style>
  </defs>
  <path class="cls-1" d="M75.82,9.02c-1.64-1.62-3.8-2.51-6.1-2.51h-.04c-2.32.01-4.49.92-6.12,2.57l-8.61,8.69-5.7-5.23c-1.83-1.68-4.66-1.55-6.34.27l-10.28,11.2c-1.68,1.83-1.55,4.66.27,6.34l1.52,1.4-23.88,23.98c-2.52,2.54-3.89,5.91-3.87,9.48.02,3.58,1.43,6.93,3.97,9.45,2.52,2.5,5.87,3.88,9.42,3.88s6.98-1.41,9.51-3.96l24.6-24.7,1.82,1.67c1.83,1.68,4.66,1.55,6.34-.27l10.28-11.2c1.68-1.83,1.55-4.66-.27-6.34l-4.58-4.21,8.14-8.22c3.37-3.4,3.34-8.9-.06-12.27ZM25.73,70.78c-1.52,1.53-3.54,2.38-5.7,2.38s-4.13-.82-5.64-2.32c-1.52-1.51-2.37-3.51-2.38-5.66-.01-2.14.81-4.16,2.31-5.67l24.03-24.13,11.82,10.85-24.45,24.55ZM72.06,17.52l-8.29,8.37-4.88-4.48,8.46-8.55c.62-.63,1.45-.98,2.33-.98.9.02,1.72.34,2.34.96,1.3,1.28,1.31,3.38.02,4.68Z"/>
</svg>