<?xml version="1.0" encoding="UTF-8"?>
<svg id="_Слой_1" data-name="Слой 1" xmlns="http://www.w3.org/2000/svg" viewBox="0 0 85.04 85.04">
  <defs>
    <style>
      .cls-1 {
        fill: #310c1e;
      }
    </style>
  </defs>
  <path class="cls-1" d="M60.45,5.51c-2.17-2.17-5.68-2.17-7.84,0l-3.69,3.69c-1.23,1.23-1.76,2.9-1.59,4.51-1.02.1-2.04.4-3,.91l-23.66,12.68c-1.83.98-3.19,2.61-3.83,4.59l-12.5,38.83c-.87,2.71-.23,5.71,1.69,7.82,1.55,1.7,3.69,2.62,5.89,2.62.93,0,1.87-.16,2.78-.5l37.05-13.67c1.76-.65,3.25-1.91,4.18-3.54l13.48-23.69c.42-.74.7-1.52.87-2.32,1.88.54,3.98.07,5.46-1.41l3.69-3.69c2.17-2.17,2.17-5.68,0-7.84L60.45,5.51ZM66.09,37.86l-13.48,23.69c-.48.85-1.25,1.5-2.17,1.84l-37.05,13.67c-.87.32-1.78.33-2.62.08l23.74-23.94c1.13.65,2.44,1.03,3.84,1.03,4.25,0,7.72-3.46,7.72-7.72s-3.46-7.72-7.72-7.72-7.72,3.46-7.72,7.72c0,1.47.42,2.84,1.13,4.01l-23.75,23.94c-.27-.82-.29-1.72-.02-2.57l12.5-38.83c.33-1.03,1.04-1.88,1.99-2.39l23.66-12.67c1.14-.61,2.46-.64,3.59-.15l16.7,16.7c.34,1.08.24,2.28-.35,3.3ZM34.47,46.51c0-2.14,1.74-3.88,3.88-3.88s3.88,1.74,3.88,3.88-1.74,3.88-3.88,3.88-3.88-1.74-3.88-3.88Z"/>
</svg>