<?xml version="1.0" encoding="UTF-8"?>
<svg id="_Слой_1" data-name="Слой 1" xmlns="http://www.w3.org/2000/svg" viewBox="0 0 85.04 85.04">
  <defs>
    <style>
      .cls-1 {
        fill: #310c1e;
      }
    </style>
  </defs>
  <path class="cls-1" d="M50.13,19.05c-2.99,0-5.98,1.16-8.23,3.46L3.28,62.03c-4.44,4.55-4.36,11.83.19,16.28,2.24,2.19,5.14,3.28,8.04,3.28s5.98-1.16,8.23-3.46l38.62-39.51c4.44-4.55,4.36-11.83-.19-16.28-2.24-2.19-5.14-3.28-8.04-3.28ZM54.52,34.85l-11.09,11.35c-4.59-1.86-7.46-4.82-8.98-8.38l11.29-11.55c1.16-1.19,2.72-1.85,4.39-1.85,1.61,0,3.14.62,4.29,1.75,2.42,2.37,2.47,6.26.1,8.68Z"/>
  <path class="cls-1" d="M16.45,19.22h6.69v7.37c0,1.48,1.2,2.69,2.69,2.69s2.69-1.2,2.69-2.69v-7.37h6.27c1.48,0,2.69-1.2,2.69-2.69s-1.2-2.69-2.69-2.69h-6.27v-7.72c0-1.48-1.2-2.69-2.69-2.69s-2.69,1.2-2.69,2.69v7.72h-6.69c-1.48,0-2.69,1.2-2.69,2.69s1.2,2.69,2.69,2.69Z"/>
  <path class="cls-1" d="M66.75,18.85h5.3v5.88c0,1.48,1.2,2.69,2.69,2.69s2.69-1.2,2.69-2.69v-5.88h4.93c1.48,0,2.69-1.2,2.69-2.69s-1.2-2.69-2.69-2.69h-4.93v-6.17c0-1.48-1.2-2.69-2.69-2.69s-2.69,1.2-2.69,2.69v6.17h-5.3c-1.48,0-2.69,1.2-2.69,2.69s1.2,2.69,2.69,2.69Z"/>
  <path class="cls-1" d="M80.69,48.05c0-1.48-1.2-2.69-2.69-2.69h-3.14v-4.01c0-1.48-1.2-2.69-2.69-2.69s-2.69,1.2-2.69,2.69v4.01h-3.93c-1.48,0-2.69,1.2-2.69,2.69s1.2,2.69,2.69,2.69h3.93v3.49c0,1.48,1.2,2.69,2.69,2.69s2.69-1.2,2.69-2.69v-3.49h3.14c1.48,0,2.69-1.2,2.69-2.69Z"/>
</svg>